<svg xmlns="http://www.w3.org/2000/svg" viewBox="0 0 144 65.57"><defs><style>.cls-1{fill:#ff9e18;}</style></defs><title>hydraform</title><g id="Layer_2" data-name="Layer 2"><g id="Layer_1-2" data-name="Layer 1"><polygon points="3.06 56.14 6.28 56.15 5.08 59.97 10.94 59.99 12.16 56.15 15.45 56.15 12.32 65.52 9.14 65.53 10.45 61.48 4.57 61.47 3.28 65.53 0 65.51 3.06 56.14"/><polygon points="17.68 56.15 21.41 56.15 24.11 60.8 30.74 56.17 32.48 56.16 24.48 61.96 23.17 65.51 19.86 65.5 21.24 61.8 17.68 56.15"/><path d="M67.11,61.92h4.84l-.89-4.34Zm3.8-5.78h3l2,9.36H72.66l-.37-2.21H65.82s-.79.89-1,1.08c-.36.36-1,1.15-1,1.15H62.22l2.19-2.37Z"/><path d="M39.32,64.44c.84,0,1.11-.85,1.38-1.5a28.55,28.55,0,0,0,1.19-3.21c.13-.45.53-1.53.35-2-.29-.79-3.48-.55-3.48-.55H36.26L34,64.44Zm-6.05-8.29h9.61c1.63,0,2.33.33,2.73.76s.05,1.8-.15,2.47-.52,1.49-.77,2.13c0,0-1,3-2.56,3.66a7.07,7.07,0,0,1-1.53.33H29.94Z"/><polygon points="81.39 56.16 92.2 56.15 91.66 57.43 84.24 57.45 83.13 60.53 90.15 60.54 89.74 61.69 82.68 61.68 81.29 65.54 78.01 65.54 81.39 56.16"/><path d="M98.4,64.33a8.88,8.88,0,0,0,2.69-.2c.49-.21.73-1,.94-1.41.13-.28.73-2.17,1.11-3.32.15-.44.59-1.55.35-1.84s-3.17-.19-3.17-.19-2.62-.06-3.25.33a9.82,9.82,0,0,0-1.36,3c-.34,1-1.08,3-.81,3.38s3.51.28,3.51.28m5.05.8c-1.23.52-9.46.33-9.46.33s-2.11.06-2.65-.54-.15-1.7,0-2.31c.24-.79.54-1.46.77-2.09.53-1.5.85-3,2-3.82s10.31-.59,10.31-.59,2.13,0,2.55.59-.12,2.09-.12,2.09-.45,1.36-.69,2c-.67,1.82-1.13,3.79-2.78,4.32"/><path d="M51.27,60.93h5.37a1.73,1.73,0,0,0,.73-.17c.42,0,1.19-2.47,1.15-2.77,0-.08-.09-.23-.74-.26H52.33Zm-1.62-4.75,5.95,0s4.15-.1,5.46.44c2.33,1-.08,4.22-.71,4.94a5,5,0,0,1-2.15.64l1.08,3.37H56l-1-3.17H50.74l-1.18,3.15-3.27,0Z"/><path d="M112.42,61h5.46a4.47,4.47,0,0,0,1.16-.2c.42,0,1.37-2.39,1.32-2.68,0-.14-.14-.36-.87-.39h-5.88Zm-1.56-4.84,8.34,0a23.15,23.15,0,0,1,3.18.48c2.15.67-.15,4.38-.9,4.89a4.9,4.9,0,0,1-2.14.64l1.14,3.36-3.3,0-1-3.15h-4.29l-1.11,3.1-3.32,0Z"/><path d="M132.55,65.54h-3c-.69-2.46-1.48-5.08-2.15-7.56-.65,2.61-2.57,7.56-2.57,7.56l-1.24,0,3.07-9.37h3.45l2.26,7.92,7.94-7.93H144l-3.34,9.42h-3.4c.68-2,1.65-4.56,2.51-6.94l.14-.45s-2.37,2.63-7.36,7.36"/><path d="M132.7,24.75c0,13.5-28.31,24.45-63.23,24.45S6.23,38.26,6.23,24.75,34.54.3,69.47.3,132.7,11.25,132.7,24.75"/><path class="cls-1" d="M122.61,24.39c0,12.69-24.1,23-53.83,23S15,37.08,15,24.39s24.09-23,53.82-23,53.83,10.29,53.83,23"/><path d="M55.35,12.05H68.13a8.48,8.48,0,0,0-2.76,3.77l-2.18,6.34,13.49,0,2.63-7.53s1.25-5.1-2.09-8.74c0,0-2.39-2.63-10.31-4.83l1.66.06S77,2.27,79.48,3.28s7,2.29,8.77,6.11a11.3,11.3,0,0,1,.45,7.81s-4,11.67-6.37,16.18A4.14,4.14,0,0,0,82.78,37H70.09a8,8,0,0,0,2.54-3.31l2.67-7.81H61.85l-3,8.28s-1.11,5.1,1.56,8.45c0,0,2,3,10.55,5.33-.13,0-1.78.14-1.78.14l-.85-.27s-10.6-1.06-15.85-5.05c0,0-4.73-2.71-3.12-10.67,0,0,4.86-13.79,6.46-16.31a4.26,4.26,0,0,0-.49-3.73"/><path d="M110,2h.24c.29,0,.51-.1.51-.34s-.14-.36-.47-.36H110Zm0,1.39h-.49V1a4.5,4.5,0,0,1,.74-.07,1.26,1.26,0,0,1,.81.19.62.62,0,0,1,.2.52.57.57,0,0,1-.45.56v0c.21,0,.34.23.38.59a2.19,2.19,0,0,0,.13.6h-.52a2.12,2.12,0,0,1-.14-.63.39.39,0,0,0-.44-.36H110Zm.36-3a1.68,1.68,0,0,0-1.59,1.75,1.61,1.61,0,1,0,3.21,0A1.68,1.68,0,0,0,110.32.44Zm0-.44a2.12,2.12,0,0,1,2.08,2.17,2.1,2.1,0,1,1-4.2,0A2.14,2.14,0,0,1,110.32,0Z"/></g></g></svg>